<?xml version="1.0" encoding="UTF-8" standalone="no"?>
<!DOCTYPE svg PUBLIC "-//W3C//DTD SVG 1.1//EN" "http://www.w3.org/Graphics/SVG/1.1/DTD/svg11.dtd">
<!-- Created with Vectornator (http://vectornator.io/) -->
<svg height="100%" stroke-miterlimit="10" style="fill-rule:nonzero;clip-rule:evenodd;stroke-linecap:round;stroke-linejoin:round;" version="1.1" viewBox="0 0 1295.6 1275.75" width="100%" xml:space="preserve" xmlns="http://www.w3.org/2000/svg" xmlns:vectornator="http://vectornator.io" xmlns:xlink="http://www.w3.org/1999/xlink">
<defs>
<clipPath id="TextBounds">
<rect height="282.996" width="144.528" x="-11.34" y="652.05"/>
</clipPath>
<clipPath id="TextBounds_2">
<rect height="282.996" width="144.528" x="725.76" y="-59.535"/>
</clipPath>
</defs>
<clipPath id="ArtboardFrame">
<rect height="1275.75" width="1295.6" x="0" y="0"/>
</clipPath>
<g clip-path="url(#ArtboardFrame)" id="Layer_x0020_1" vectornator:layerName="Layer_x0020_1">
<path d="M311.85 323.19L1287.09 323.19L1287.09 323.19L1287.09 1267.24L1287.09 1267.24L311.85 1267.24L311.85 1267.24L311.85 323.19L311.85 323.19Z" fill="#ff6600" fill-rule="evenodd" opacity="1" stroke="#000000" stroke-linecap="butt" stroke-linejoin="miter" stroke-width="18.0546"/>
<path clip-path="url(#TextBounds)" d="M91.795 857.536C83.8334 864.303 76.1704 869.08 68.806 871.866C61.4416 874.653 53.5397 876.046 45.1005 876.046C31.1678 876.046 20.4595 872.643 12.9756 865.835C5.49175 859.028 1.74982 850.33 1.74982 839.741C1.74982 833.531 3.163 827.859 5.98935 822.724C8.8157 817.588 12.5178 813.468 17.0957 810.363C21.6736 807.258 26.8287 804.91 32.561 803.317C36.7806 802.203 43.1499 801.128 51.6687 800.093C69.0249 798.023 81.8032 795.555 90.0036 792.689C90.0832 789.743 90.123 787.872 90.123 787.076C90.123 778.318 88.0928 772.148 84.0325 768.565C78.539 763.709 70.3784 761.28 59.5507 761.28C49.4395 761.28 41.9756 763.052 37.1588 766.595C32.3421 770.138 28.7793 776.407 26.4704 785.404L5.45194 782.538C7.36272 773.541 10.5075 766.276 14.8864 760.743C19.2652 755.21 25.5947 750.95 33.8747 747.965C42.1547 744.979 51.7484 743.486 62.6557 743.486C73.4834 743.486 82.2809 744.76 89.0482 747.308C95.8156 749.856 100.792 753.06 103.976 756.921C107.161 760.783 109.39 765.659 110.664 771.551C111.38 775.213 111.739 781.821 111.739 791.375L111.739 820.037C111.739 840.02 112.196 852.659 113.112 857.954C114.028 863.248 115.839 868.323 118.546 873.18L96.0942 873.18C93.865 868.722 92.4319 863.507 91.795 857.536ZM90.0036 809.527C82.2013 812.712 70.4978 815.419 54.8932 817.648C46.0559 818.922 39.806 820.355 36.1437 821.947C32.4814 823.54 29.6551 825.868 27.6647 828.934C25.6743 831.999 24.6791 835.402 24.6791 839.144C24.6791 844.877 26.8486 849.654 31.1877 853.475C35.5267 857.297 41.876 859.207 50.2357 859.207C58.5157 859.207 65.8801 857.396 72.329 853.774C78.7778 850.151 83.515 845.195 86.5403 838.906C88.8492 834.049 90.0036 826.884 90.0036 817.409L90.0036 809.527Z" fill="#000000" fill-rule="evenodd" opacity="1" stroke="none"/>
<path d="M204.12 323.19L243.81 402.57L164.43 402.57L204.12 323.19ZM198.45 1190.7L198.45 396.9L206.955 396.9L206.955 1190.7L198.45 1190.7ZM204.12 1267.24L164.43 1187.87L243.81 1187.87L204.12 1267.24Z" fill="#000000" fill-rule="evenodd" opacity="1" stroke="none"/>
<path d="M311.85 215.46L391.23 175.77L391.23 255.15L311.85 215.46ZM1213.38 218.295L385.56 218.295L385.56 212.625L1213.38 212.625L1213.38 218.295ZM1287.09 215.46L1207.71 255.15L1207.71 175.77L1287.09 215.46Z" fill="#000000" fill-rule="evenodd" opacity="1" stroke="none"/>
<path clip-path="url(#TextBounds_2)" d="M828.895 145.951C820.933 152.718 813.27 157.495 805.906 160.281C798.542 163.068 790.64 164.461 782.2 164.461C768.268 164.461 757.559 161.058 750.076 154.25C742.592 147.443 738.85 138.745 738.85 128.156C738.85 121.946 740.263 116.274 743.089 111.139C745.916 106.003 749.618 101.883 754.196 98.7784C758.774 95.6734 763.929 93.3247 769.661 91.7324C773.881 90.6178 780.25 89.543 788.769 88.508C806.125 86.438 818.903 83.9699 827.104 81.1037C827.183 78.1579 827.223 76.287 827.223 75.4908C827.223 66.7331 825.193 60.5629 821.132 56.9802C815.639 52.1237 807.478 49.6954 796.651 49.6954C786.54 49.6954 779.076 51.4668 774.259 55.0097C769.442 58.5526 765.879 64.8223 763.57 73.8189L742.552 70.9527C744.463 61.9562 747.608 54.6913 751.986 49.158C756.365 43.6247 762.695 39.3653 770.975 36.3797C779.255 33.3941 788.848 31.9013 799.756 31.9013C810.583 31.9013 819.381 33.1752 826.148 35.7229C832.916 38.2706 837.892 41.4751 841.076 45.3364C844.261 49.1978 846.49 54.0742 847.764 59.9658C848.48 63.6281 848.839 70.2362 848.839 79.7901L848.839 108.452C848.839 128.435 849.296 141.074 850.212 146.369C851.128 151.663 852.939 156.738 855.646 161.595L833.194 161.595C830.965 157.137 829.532 151.922 828.895 145.951ZM827.104 97.9424C819.301 101.127 807.598 103.834 791.993 106.063C783.156 107.337 776.906 108.77 773.244 110.362C769.581 111.955 766.755 114.283 764.765 117.349C762.774 120.414 761.779 123.817 761.779 127.559C761.779 133.292 763.949 138.069 768.288 141.89C772.627 145.712 778.976 147.622 787.336 147.622C795.616 147.622 802.98 145.811 809.429 142.189C815.878 138.566 820.615 133.61 823.64 127.321C825.949 122.464 827.104 115.299 827.104 105.824L827.104 97.9424Z" fill="#000000" fill-rule="evenodd" opacity="1" stroke="none"/>
<path d="M1287.09 1267.24L1287.09 323.19L311.85 323.19L311.85 1267.24L1287.09 1267.24Z" fill="#734f2a" fill-rule="evenodd" opacity="1" stroke="#000000" stroke-linecap="butt" stroke-linejoin="miter" stroke-width="7.22182"/>
<path d="M1287.09 1267.24L1287.09 323.19L311.85 323.19L311.85 1267.24L1287.09 1267.24Z" fill="#ffebd6" fill-rule="evenodd" opacity="1" stroke="#000000" stroke-linecap="butt" stroke-linejoin="miter" stroke-width="7.22182"/>
</g>
</svg>
