<?xml version="1.0" encoding="UTF-8" standalone="no"?>
<!DOCTYPE svg PUBLIC "-//W3C//DTD SVG 1.1//EN" "http://www.w3.org/Graphics/SVG/1.1/DTD/svg11.dtd">
<!-- Created with Vectornator (http://vectornator.io/) -->
<svg height="100%" stroke-miterlimit="10" style="fill-rule:nonzero;clip-rule:evenodd;stroke-linecap:round;stroke-linejoin:round;" version="1.1" viewBox="0 0 41975 34181.6" width="100%" xml:space="preserve" xmlns="http://www.w3.org/2000/svg" xmlns:vectornator="http://vectornator.io" xmlns:xlink="http://www.w3.org/1999/xlink">
<defs>
<clipPath id="TextBounds">
<rect height="3532.41" width="2165.12" x="7826.02" y="23210.5"/>
</clipPath>
<clipPath id="TextBounds_2">
<rect height="5415.76" width="2626.57" x="16170.8" y="-48.195"/>
</clipPath>
<clipPath id="TextBounds_3">
<rect height="5415.76" width="2626.57" x="20480" y="29855.4"/>
</clipPath>
<clipPath id="TextBounds_4">
<rect height="5415.76" width="2626.57" x="15036.8" y="15351.5"/>
</clipPath>
<clipPath id="TextBounds_5">
<rect height="5436.25" width="2362.17" x="-234.952" y="12752.4"/>
</clipPath>
<clipPath id="TextBounds_6">
<rect height="5436.25" width="2626.5" x="35886" y="11703.7"/>
</clipPath>
<clipPath id="TextBounds_7">
<rect height="3532.41" width="1972.04" x="22252.1" y="7660.01"/>
</clipPath>
<clipPath id="TextBounds_8">
<rect height="3532.41" width="2165.12" x="34445.2" y="23311.2"/>
</clipPath>
<clipPath id="TextBounds_9">
<rect height="3532.41" width="2165.12" x="10778.7" y="7923.82"/>
</clipPath>
</defs>
<clipPath id="ArtboardFrame">
<rect height="34181.6" width="41975" x="0" y="0"/>
</clipPath>
<g clip-path="url(#ArtboardFrame)" id="Layer_x0020_1" vectornator:layerName="Layer_x0020_1">
<path d="M6129.27 27173.5L39922.5 27173.5L24256.3 7492.9L10532 7492.9L6129.27 27173.5Z" fill="#ffebd6" fill-rule="evenodd" opacity="1" stroke="#000000" stroke-linecap="butt" stroke-linejoin="miter" stroke-width="347.497"/>
<path d="M6268.18 27102.6L11487.4 27102.6C11487.4 24673 9809.1 22566.6 7441.88 22019.4L6268.18 27102.6Z" fill="#ff8041" fill-rule="evenodd" opacity="1" stroke="#000000" stroke-linecap="butt" stroke-linejoin="miter" stroke-width="138.999"/>
<path clip-path="url(#TextBounds)" d="M9676.59 25541.4C9671.99 25642.5 9704.74 25691.9 9774.85 25689.6C9817.37 25689.6 9849.55 25682.1 9871.39 25667.2L9871.39 25939.6C9844.95 25948.8 9810.48 25954.5 9767.95 25956.8C9723.13 25961.4 9685.78 25963.7 9655.9 25963.7C9573.15 25961.4 9508.22 25931 9461.1 25872.3C9409.38 25816 9383.52 25747.6 9383.52 25667.2L9376.62 25667.2C9232.97 25864.9 9036.44 25963.7 8787.05 25963.7C8519.27 25959.1 8319.29 25863.2 8187.13 25675.8C8052.66 25494.2 7985.43 25276.4 7985.43 25022.5C7985.43 24762.7 8050.36 24539.2 8180.23 24351.9C8308.95 24161.1 8512.37 24063.4 8790.49 24058.8C9037.59 24058.8 9231.82 24158.8 9373.18 24358.8L9380.07 24358.8L9380.07 24093.3L9676.59 24093.3L9676.59 25541.4ZM8837.04 25710.3C8928.98 25710.3 9007.71 25689 9073.22 25646.5C9136.43 25606.3 9189.29 25552.3 9231.82 25484.5C9314.56 25345.4 9355.94 25192.5 9355.94 25025.9C9355.94 24839.7 9318.01 24676 9242.16 24534.6C9165.16 24390.9 9024.95 24316.8 8821.53 24312.2C8641.09 24316.8 8509.5 24389.8 8426.75 24531.1C8344 24670.2 8302.63 24824.2 8302.63 24993.2C8302.63 25172.4 8344 25333.9 8426.75 25477.6C8509.5 25628.1 8646.26 25705.7 8837.04 25710.3Z" fill="#000000" fill-rule="evenodd" opacity="1" stroke="none"/>
<path d="M6129.27 29257.2L7643.16 28500.3L7643.16 30014.1L6129.27 29257.2ZM38488 29328.1L7563.78 29328.1L7563.78 29189.2L38488 29189.2L38488 29328.1ZM39922.5 29257.2L38408.6 30014.1L38408.6 28500.3L39922.5 29257.2Z" fill="#000000" fill-rule="evenodd" opacity="1" stroke="none"/>
<path d="M10532 5406.35L12043.1 4652.23L12043.1 6163.29L10532 5406.35ZM22821.8 5477.22L11963.7 5477.22L11963.7 5338.31L22821.8 5338.31L22821.8 5477.22ZM24256.3 5406.35L22742.4 6163.29L22742.4 4652.23L24256.3 5406.35Z" fill="#000000" fill-rule="evenodd" opacity="1" stroke="none"/>
<path clip-path="url(#TextBounds_2)" d="M16867 4212.81L16483.1 4212.81L16483.1 843.114L16896.8 843.114L16896.8 2045.26C17071.5 1826.13 17294.5 1716.57 17565.7 1716.57C17715.9 1716.57 17858 1746.83 17992.1 1807.36C18126.2 1867.89 18236.5 1952.94 18323.1 2062.5C18409.7 2172.07 18477.5 2304.23 18526.5 2459C18575.6 2613.77 18600.1 2779.27 18600.1 2955.49C18600.1 3373.83 18496.6 3697.17 18289.8 3925.49C18082.9 4153.81 17834.7 4267.98 17545 4267.98C17257 4267.98 17030.9 4147.68 16867 3907.1L16867 4212.81ZM16862.4 2973.88C16862.4 3266.57 16902.2 3478.04 16981.9 3608.29C17112.1 3821.29 17288.4 3927.79 17510.6 3927.79C17691.4 3927.79 17847.7 3849.25 17979.5 3692.19C18111.3 3535.12 18177.1 3301.05 18177.1 2989.97C18177.1 2671.24 18113.9 2436.02 17987.5 2284.31C17861.1 2132.61 17708.2 2056.76 17528.9 2056.76C17348.1 2056.76 17191.8 2135.29 17060 2292.36C16928.3 2449.43 16862.4 2676.6 16862.4 2973.88Z" fill="#000000" fill-rule="evenodd" opacity="1" stroke="none"/>
<path clip-path="url(#TextBounds_3)" d="M22387.5 33815.3C22234.3 33945.5 22086.8 34037.5 21945 34091.1C21803.3 34144.7 21651.2 34171.6 21488.8 34171.6C21220.6 34171.6 21014.5 34106 20870.5 33975C20726.4 33844 20654.4 33676.6 20654.4 33472.8C20654.4 33353.3 20681.6 33244.1 20736 33145.2C20790.4 33046.4 20861.6 32967.1 20949.8 32907.3C21037.9 32847.6 21137.1 32802.4 21247.4 32771.7C21328.6 32750.3 21451.2 32729.6 21615.2 32709.7C21949.2 32669.8 22195.2 32622.3 22353 32567.2C22354.6 32510.5 22355.3 32474.4 22355.3 32459.1C22355.3 32290.6 22316.2 32171.8 22238.1 32102.8C22132.4 32009.4 21975.3 31962.6 21766.9 31962.6C21572.3 31962.6 21428.6 31996.7 21335.9 32064.9C21243.2 32133.1 21174.6 32253.8 21130.2 32426.9L20725.6 32371.8C20762.4 32198.6 20822.9 32058.8 20907.2 31952.3C20991.5 31845.8 21113.3 31763.8 21272.7 31706.3C21432.1 31648.9 21616.7 31620.1 21826.7 31620.1C22035.1 31620.1 22204.4 31644.7 22334.6 31693.7C22464.9 31742.7 22560.7 31804.4 22622 31878.7C22683.3 31953.1 22726.2 32046.9 22750.7 32160.3C22764.5 32230.8 22771.4 32358 22771.4 32541.9L22771.4 33093.5C22771.4 33478.2 22780.2 33721.4 22797.8 33823.3C22815.4 33925.2 22850.3 34022.9 22902.4 34116.4L22470.3 34116.4C22427.3 34030.6 22399.8 33930.2 22387.5 33815.3ZM22353 32891.3C22202.9 32952.5 21977.6 33004.7 21677.2 33047.6C21507.2 33072.1 21386.9 33099.7 21316.4 33130.3C21245.9 33161 21191.5 33205.8 21153.2 33264.8C21114.9 33323.8 21095.7 33389.3 21095.7 33461.3C21095.7 33571.6 21137.5 33663.6 21221 33737.1C21304.5 33810.7 21426.7 33847.5 21587.6 33847.5C21747 33847.5 21888.7 33812.6 22012.8 33742.9C22137 33673.2 22228.1 33577.8 22286.4 33456.7C22330.8 33363.2 22353 33225.3 22353 33043L22353 32891.3Z" fill="#000000" fill-rule="evenodd" opacity="1" stroke="none"/>
<g opacity="1">
<path d="M18974.7 7597.8L19731.6 9111.69L18217.7 9111.69L18974.7 7597.8ZM18903.8 25846.7L18903.8 9032.31L19042.7 9032.31L19042.7 25846.7L18903.8 25846.7ZM18974.7 27278.4L18217.7 25767.3L19731.6 25767.3L18974.7 27278.4Z" fill="#000000" fill-rule="evenodd" opacity="1" stroke="none"/>
<path clip-path="url(#TextBounds_4)" d="M15351.4 19612.5L15351.4 16242.8L15765.1 16242.8L15765.1 17451.9C15958.2 17228.2 16201.9 17116.3 16496.1 17116.3C16676.9 17116.3 16834 17151.9 16967.3 17223.2C17100.6 17294.4 17196 17392.9 17253.5 17518.5C17310.9 17644.2 17339.7 17826.5 17339.7 18065.6L17339.7 19612.5L16925.9 19612.5L16925.9 18065.6C16925.9 17858.7 16881.1 17708.2 16791.4 17613.9C16701.8 17519.7 16575 17472.6 16411 17472.6C16288.4 17472.6 16173.1 17504.4 16065.1 17568C15957.1 17631.6 15880.1 17717.7 15834.1 17826.5C15788.1 17935.3 15765.1 18085.5 15765.1 18277.1L15765.1 19612.5L15351.4 19612.5Z" fill="#000000" fill-rule="evenodd" opacity="1" stroke="none"/>
</g>
<path clip-path="url(#TextBounds_5)" d="M1672.47 16132.6L2079.31 16185.7C2034.87 16467.3 1921.09 16687.7 1737.98 16846.9C1554.86 17006.2 1329.99 17085.8 1063.36 17085.8C729.303 17085.8 460.758 16976.2 257.721 16756.9C54.6837 16537.6-46.8348 16223.4-46.8348 15814.1C-46.8348 15549.4-3.16269 15317.8 84.1815 15119.3C171.526 14920.8 304.457 14772 482.977 14672.7C661.496 14573.5 855.722 14523.9 1065.65 14523.9C1330.75 14523.9 1547.58 14591.2 1716.14 14725.8C1884.7 14860.5 1992.73 15051.6 2040.23 15299.4L1637.99 15361.7C1599.68 15197 1531.87 15073.2 1434.57 14990.1C1337.26 14907 1219.66 14865.5 1081.74 14865.5C873.344 14865.5 704.019 14940.5 573.769 15090.5C443.519 15240.5 378.394 15477.9 378.394 15802.5C378.394 16131.8 441.22 16371.1 566.873 16520.3C692.526 16669.6 856.488 16744.2 1058.76 16744.2C1221.19 16744.2 1356.8 16694.2 1465.6 16594.2C1574.4 16494.2 1643.35 16340.3 1672.47 16132.6Z" fill="#000000" fill-rule="evenodd" opacity="1" stroke="none"/>
<path clip-path="url(#TextBounds_6)" d="M37784.2 15981.7L37784.2 15672.5C37629.4 15915.6 37401.9 16037.1 37101.5 16037.1C36906.9 16037.1 36728 15983.3 36564.8 15875.6C36401.6 15767.9 36275.2 15617.4 36185.6 15424.3C36095.9 15231.2 36051.1 15009.3 36051.1 14758.5C36051.1 14513.8 36091.7 14291.8 36172.9 14092.6C36254.1 13893.3 36376 13740.6 36538.4 13634.4C36700.8 13528.3 36882.4 13475.2 37083.2 13475.2C37230.3 13475.2 37361.3 13506.3 37476.2 13568.7C37591.1 13631 37684.6 13712.1 37756.6 13812.2L37756.6 12598.1L38168.1 12598.1L38168.1 15981.7L37784.2 15981.7ZM36476.3 14758.5C36476.3 15072.4 36542.2 15307 36674 15462.4C36805.8 15617.8 36961.3 15695.5 37140.6 15695.5C37321.4 15695.5 37475.1 15621.3 37601.5 15472.8C37727.9 15324.3 37791.1 15097.7 37791.1 14793.1C37791.1 14457.6 37726.7 14211.4 37598 14054.5C37469.3 13897.6 37310.7 13819.1 37122.2 13819.1C36938.3 13819.1 36784.7 13894.5 36661.4 14045.3C36538 14196.1 36476.3 14433.8 36476.3 14758.5Z" fill="#000000" fill-rule="evenodd" opacity="1" stroke="none"/>
<path d="M8337.74 6832.35L8745.98 8473.82L7268.94 8144.95L8337.74 6832.35ZM4181.62 25098.3L7957.85 8215.83L8093.93 8247.01L4317.7 25129.4L4181.62 25098.3ZM3934.98 26512.9L3526.74 24871.5L5003.77 25203.2L3934.98 26512.9Z" fill="#000000" fill-rule="evenodd" opacity="1" stroke="none"/>
<path d="M26308.8 6676.43L27842.5 7388.01L26660.3 8332.07L26308.8 6676.43ZM41028.1 25276.9L27148 7841.61L27255.7 7753.72L41135.8 25191.8L41028.1 25276.9ZM41975 26357L40441.3 25642.6L41626.3 24701.4L41975 26357Z" fill="#000000" fill-rule="evenodd" opacity="1" stroke="none"/>
<path d="M10628.4 7631.82L15799.5 7631.82C15799.5 10486.7 13483.3 12800 10628.4 12800C10268.4 12800 9908.33 12763.2 9553.95 12686.6L10628.4 7631.82Z" fill="#ff8041" fill-rule="evenodd" opacity="1" stroke="#000000" stroke-linecap="butt" stroke-linejoin="miter" stroke-width="138.999"/>
<path d="M24213.7 7631.82L26892.8 11059.3C26127.4 11657.5 25186.1 11983.5 24213.7 11983.5C21812.5 11983.5 19862 10035.9 19862 7631.82L24213.7 7631.82Z" fill="#ff8041" fill-rule="evenodd" opacity="1" stroke="#000000" stroke-linecap="butt" stroke-linejoin="miter" stroke-width="138.999"/>
<path d="M39783.6 27102.6L33396.3 27102.6C33396.3 25177.6 34266.6 23351.9 35763.5 22141.3L39783.6 27102.6Z" fill="#ff8041" fill-rule="evenodd" opacity="1" stroke="#000000" stroke-linecap="butt" stroke-linejoin="miter" stroke-width="138.999"/>
<path clip-path="url(#TextBounds_7)" d="M23114.9 10254.6L22577 9030.67C22540.2 8936.43 22509.8 8870.35 22485.7 8832.42C22460.4 8799.09 22428.8 8782.43 22390.8 8782.43C22334.5 8784.73 22300 8788.75 22287.4 8794.49L22287.4 8539.36C22327.6 8520.97 22374.8 8510.62 22428.8 8508.33C22549.4 8508.33 22636.8 8534.18 22690.8 8585.9C22718.4 8608.89 22743.1 8640.49 22764.9 8680.72C22785.6 8723.24 22806.9 8772.66 22828.7 8828.97L23273.5 9894.35L23816.5 8542.8L24149.2 8542.8L23432.1 10254.6L23432.1 11070.1L23114.9 11070.1L23114.9 10254.6Z" fill="#000000" fill-rule="evenodd" opacity="1" stroke="none"/>
<path clip-path="url(#TextBounds_8)" d="M34816.7 23537.2L36207.9 23537.2L36207.9 23792.3L35218.4 23792.3L35218.4 23799.2L35833.8 24207.8C36063.7 24362.9 36222.3 24516.3 36309.6 24668.1C36390.1 24820.9 36429.1 24980.7 36426.8 25147.3C36424.5 25392.1 36347 25604.1 36194.1 25783.4C36037.8 25966.2 35812.5 26059.8 35518.3 26064.4C35248.2 26062.1 35033.3 25976.5 34873.6 25807.6C34712.7 25643.2 34631.1 25431.2 34628.8 25171.4C34634.5 24616.3 34917.3 24316.4 35477 24271.6L35477 24264.7L34816.7 23792.3L34816.7 23537.2ZM35547.6 25811C35733.8 25808.7 35870 25735.7 35956.2 25592.1C36043.5 25455.3 36087.2 25305.9 36087.2 25143.9C36087.2 25051.9 36078 24972 36059.6 24904.2C36040.1 24837.6 36016.5 24781.8 35989 24737C35960.2 24693.3 35932.1 24657.1 35904.5 24628.4C35875.8 24599.7 35852.2 24579.6 35833.8 24568.1C35786.7 24525.5 35721.7 24504.3 35639 24504.3C35194.2 24504.3 34970.7 24731.8 34968.4 25187C34968.4 25360.5 35019 25505.9 35120.1 25623.1C35221.2 25746.1 35363.8 25808.7 35547.6 25811Z" fill="#000000" fill-rule="evenodd" opacity="1" stroke="none"/>
<path clip-path="url(#TextBounds_9)" d="M11407 11333.9L11093.2 11333.9L11093.2 8913.51C11093.2 8372.2 11359.3 8096.37 11891.4 8086.03C12100.6 8086.03 12274.7 8137.75 12413.7 8241.18C12552.8 8348.06 12623.5 8500.34 12625.8 8698.02C12623.5 9008.32 12479.8 9207.15 12194.8 9294.49L12194.8 9301.39C12554.5 9357.7 12737.3 9568.02 12743 9932.34C12740.7 10147.3 12676.9 10324.2 12551.7 10463.3C12421.8 10603.5 12246.5 10674.8 12025.9 10677.1C11891.4 10677.1 11778.2 10657.5 11686.3 10618.5C11592 10578.2 11498.9 10507.6 11407 10406.4L11407 11333.9ZM11412.2 9790.98C11412.2 9873.73 11420.2 9953.03 11436.3 10028.9C11452.4 10101.3 11479.4 10167.9 11517.3 10228.9C11557.5 10288.6 11613.8 10334.6 11686.3 10366.8C11757.5 10404.7 11848.3 10423.7 11958.6 10423.7C12106.9 10423.7 12222.4 10375.4 12305.1 10278.8C12384.4 10186.9 12424.1 10068 12424.1 9921.99C12421.8 9748.45 12367.8 9624.91 12262 9551.35C12156.3 9483.55 12024.7 9449.64 11867.3 9449.64C11807.5 9451.94 11747.2 9455.39 11686.3 9459.99L11686.3 9194.5C11738 9194.5 11787.4 9193.35 11834.5 9191.06C11966.7 9188.76 12078.7 9152.55 12170.7 9082.45C12260.3 9013.49 12306.3 8902.59 12308.6 8749.73C12301.7 8477.36 12156.9 8341.17 11874.2 8341.17C11711 8343.47 11593.2 8391.73 11520.8 8485.98C11448.4 8582.51 11412.2 8712.96 11412.2 8877.3L11412.2 9790.98Z" fill="#000000" fill-rule="evenodd" opacity="1" stroke="none"/>
</g>
</svg>
